<svg width="174" height="27" viewBox="0 0 174 27" fill="none" xmlns="http://www.w3.org/2000/svg">
<path d="M6.1927 26.0601C6.1927 26.4201 6.51674 26.7442 6.87678 26.7442H10.2252C10.5852 26.7442 10.9093 26.4201 10.9093 26.0601V5.73994H16.4179C16.8139 5.73994 17.102 5.4159 17.102 5.05586L17.102 1.57954C17.102 1.2195 16.8139 0.895462 16.4179 0.895462H0.684049C0.288003 0.895462 -3.05176e-05 1.2195 -3.05176e-05 1.57954L-2.32135e-05 5.05586C-2.32135e-05 5.4159 0.288011 5.73994 0.684057 5.73994H6.1927V26.0601Z" fill="#53389E"/>
<path d="M18.8096 26.6224H21.942C22.518 26.6224 22.8421 26.2623 22.9861 25.9023L24.7503 22.0138H35.5156L37.2798 25.9023C37.5318 26.4064 37.7838 26.6224 38.3239 26.6224H41.4563C41.9963 26.6224 42.2844 26.1543 42.0683 25.6863L30.979 1.45544C30.871 1.23942 30.727 1.05939 30.367 1.05939H30.0069C29.6829 1.05939 29.5029 1.23942 29.3948 1.45544L18.1975 25.6863C17.9815 26.1543 18.2695 26.6224 18.8096 26.6224ZM26.5145 18.0174L30.0429 10.0964H30.1509L33.7514 18.0174H26.5145Z" fill="#53389E"/>
<path d="M47.3474 26.0601C47.3474 26.4201 47.6354 26.7442 48.0315 26.7442H61.209C61.6051 26.7442 61.8931 26.4201 61.8931 26.0601V22.986C61.8931 22.6259 61.6051 22.3019 61.209 22.3019H52.028V1.57954C52.028 1.2195 51.7039 0.895462 51.3439 0.895462H48.0315C47.6354 0.895462 47.3474 1.2195 47.3474 1.57954V26.0601Z" fill="#53389E"/>
<path d="M71.8578 26.347C71.9658 26.5631 72.1458 26.7431 72.4699 26.7431H72.8299C73.154 26.7431 73.334 26.5631 73.442 26.347L85.099 1.83157C85.315 1.36352 85.027 0.895462 84.4869 0.895462H80.8145C80.4904 0.895462 80.2744 1.11149 80.2024 1.29151L72.7939 17.2973H72.5419L65.0768 1.29151C65.0048 1.11149 64.7887 0.895462 64.4647 0.895462H60.7923C60.2522 0.895462 59.9642 1.36352 60.1802 1.83157L71.8578 26.347Z" fill="#53389E"/>
<rect x="99.7212" y="0.895462" width="8.97319" height="4.78679" rx="0.997021" fill="#00A37D"/>
<rect x="92.7421" y="11.4264" width="15.9523" height="4.78679" rx="0.997021" fill="#00A37D"/>
<rect x="83.7689" y="21.9574" width="24.9255" height="4.78679" rx="0.997021" fill="#00A37D"/>
<path d="M120.779 26.0601C120.779 26.4201 121.103 26.7442 121.463 26.7442H124.811C125.171 26.7442 125.495 26.4201 125.495 26.0601V5.3799H131.004C131.4 5.3799 131.688 5.05586 131.688 4.69582V1.57954C131.688 1.2195 131.4 0.895462 131.004 0.895462H115.27C114.874 0.895462 114.586 1.2195 114.586 1.57954L114.586 4.69582C114.586 5.05586 114.874 5.3799 115.27 5.3799H120.779V26.0601Z" fill="#53389E"/>
<path d="M141.273 26.0601C141.273 26.4201 141.597 26.7442 141.957 26.7442H145.305C145.665 26.7442 145.989 26.4201 145.989 26.0601V5.3799H151.498C151.894 5.3799 152.182 5.05586 152.182 4.69582V1.57954C152.182 1.2195 151.894 0.895462 151.498 0.895462H135.764C135.368 0.895462 135.08 1.2195 135.08 1.57954V4.69582C135.08 5.05586 135.368 5.3799 135.764 5.3799H141.273V26.0601Z" fill="#53389E"/>
<path d="M157.925 26.0601C157.925 26.4201 158.213 26.7442 158.609 26.7442H173.316C173.712 26.7442 174 26.4201 174 26.0601V22.8653C174 22.5052 173.712 22.1812 173.316 22.1812H162.606V15.8804H171.499C171.859 15.8804 172.183 15.5924 172.183 15.1964V12.208C172.183 11.848 171.859 11.5239 171.499 11.5239H162.606V5.3799H173.316C173.712 5.3799 174 5.05586 174 4.69582V1.57954C174 1.2195 173.712 0.895462 173.316 0.895462H158.609C158.213 0.895462 157.925 1.2195 157.925 1.57954V26.0601Z" fill="#53389E"/>
</svg>
